# xmcd
#
# Track frame offsets:
#       150
#       16332
#       33094
#       50134
#       69709
#       81934
#       98745
#       115813
#       131151
#       146414
#       161565
#       181420
#       202758
#
# Disc length: 2738 seconds
#
# Revision: 0
# Processed by: cddbd v1.5.1PL0 Copyright (c) Steve Scherf et al.
# Submitted via: WaveLab 4.01
#
DISCID=ae0ab00d
DTITLE=Gwin Spencer - Addicted To The Motion
DYEAR=2003
DGENRE=
TTITLE0=Addicted To The Motion
TTITLE1=Don't Say It
TTITLE2=Testify
TTITLE3=What Else Could I Say
TTITLE4=Black Or White
TTITLE5=Yesterday and Days Before
TTITLE6=Killing Me
TTITLE7=I Can Feel It
TTITLE8=Ain't No Sunshine
TTITLE9=Take a Little Bit
TTITLE10=Hole In My Head
TTITLE11=Slave
TTITLE12=(hidden track)
EXTD=
EXTT0=
EXTT1=
EXTT2=
EXTT3=
EXTT4=
EXTT5=
EXTT6=
EXTT7=
EXTT8=
EXTT9=
EXTT10=
EXTT11=
EXTT12=
PLAYORDER=
